<?xml version="1.0" encoding="utf-8"?>
<!-- Generator: Adobe Illustrator 17.0.0, SVG Export Plug-In . SVG Version: 6.00 Build 0)  -->
<!DOCTYPE svg PUBLIC "-//W3C//DTD SVG 1.1//EN" "http://www.w3.org/Graphics/SVG/1.1/DTD/svg11.dtd">
<svg version="1.1" xmlns="http://www.w3.org/2000/svg" xmlns:xlink="http://www.w3.org/1999/xlink" x="0px" y="0px" width="612px"
	 height="279.667px" viewBox="0 0 612 279.667" enable-background="new 0 0 612 279.667" xml:space="preserve">
<g id="Layer_2">
</g>
<g id="Layer_4">
</g>
<g id="Layer_1">
	<g>
		<g>
			<path fill-rule="evenodd" clip-rule="evenodd" d="M112.388,104.829c-25.322,74.945-99.517,71.827-80.302-4.25l7.045-1.618
				l0.479,0.178l-0.782-0.067C19.747,174.641,87.036,178.214,112.388,104.829z"/>
			<path fill-rule="evenodd" clip-rule="evenodd" d="M133.994,96.449l-6.608,1.524c19.406-77.791-55.374-79.746-78.249,1.589
				C71.35,16.186,153.879,17.678,133.994,96.449z"/>
			<path fill="#CC2128" d="M48.92,99.562l-0.824,2.882l-8.488-3.305l-0.782-0.067c-19.081,75.569,48.276,80.439,73.64,7.054
				c0.855-2.539,2.986-9.029,3.844-12.072l-0.282-0.051l0.444,0.01l10.465,4.063l0.449-0.104
				C146.792,20.182,71.805,18.227,48.92,99.562z M114.373,93.779c-1.414,5.536-3.59,12.162-6.085,17.929
				c-12.949,29.924-35.74,49.54-50.906,43.818c-11.445-4.318-12.637-31.266-8.246-52.478c1.264-4.878,2.429-7.879,4.229-12.052
				c12.962-29.916,35.746-49.548,50.912-43.833C116.36,51.722,119.958,70.995,114.373,93.779z"/>
			<rect x="16.687" y="165.452" fill-rule="evenodd" clip-rule="evenodd" fill="#CC2128" width="576.176" height="32.618"/>
			<polygon fill-rule="evenodd" clip-rule="evenodd" fill="#32622D" points="332.596,186.123 359.644,124.741 595.313,124.741 
				568.69,186.123 			"/>
			<path fill-rule="evenodd" clip-rule="evenodd" d="M309.56,133.737l22.108-20.519l-1.232,20.38L309.56,133.737z M288.069,120.073
				h10.62c4.563-30.377-46.505-25.696-69.81,4.994c-23.816,30.382,6.241,48.065,41.614,25.689l-2.188,5.94h14.577l17.682-15.815
				h27.877l-1.561,17.063l11.115,0.311l5.952-54.933l-11.133,0.319l-52.751,44.93l12.381-19.761h-32.565l-3.121,5.513h22.991
				c-13.319,15.813-47.432,26.943-48.997,13.008C227.626,114.45,293.065,90.006,288.069,120.073z M96.76,157l34.117-53.679h13.111
				l-7.798,43.69l49.001-44.311h58.565l-4.886,7.807h-42.55l-10.199,15.174h38.387l-3.011,6.77h-40.056l-11.133,18.615h44.315
				l-4.055,7.188h-54.826l28.507-44.115l-49.725,44.437h-7.91l7.075-45.263l-26.942,44.006L96.76,157z"/>
			<g>
				<path d="M26.643,238.046c-1.333,0-2.52-0.13-3.562-0.395c-1.043-0.261-1.897-0.647-2.566-1.151
					c-0.665-0.506-1.131-1.113-1.402-1.822c-0.265-0.705-0.281-1.505-0.042-2.395l2.884-10.764c0.25-0.93,0.7-1.759,1.352-2.487
					c0.654-0.727,1.468-1.344,2.447-1.85c0.979-0.505,2.079-0.889,3.304-1.153c1.221-0.262,2.528-0.394,3.923-0.394h4.936
					l-1.12,4.179h-4.693c-3.23,0-5.002,0.576-5.31,1.727l-0.925,3.454h19.866l-1.128,4.209H24.772l-0.787,2.936
					c-0.304,1.132,1.009,1.698,3.938,1.698h15.444l-1.127,4.209H26.643z"/>
				<path d="M63.5,238.046l3.286-12.266c0.054-0.201-0.004-0.389-0.17-0.558c-0.166-0.171-0.413-0.319-0.745-0.44
					c-0.331-0.121-0.732-0.217-1.209-0.289c-0.476-0.069-0.996-0.106-1.561-0.106h-6.299c-0.545,0-1.059,0.036-1.543,0.106
					c-0.484,0.072-0.92,0.173-1.307,0.304c-0.391,0.132-0.708,0.283-0.957,0.454c-0.247,0.17-0.399,0.358-0.452,0.56l-3.277,12.235
					h-4.695l3.359-12.539c0.935-3.491,4.361-5.237,10.277-5.237h5.997c5.835,0,8.288,1.735,7.357,5.207l-3.368,12.569H63.5z"/>
				<path d="M94.314,224.418l-3.651,13.628h-4.695l3.651-13.628h-2.695l1.024-3.815h2.694l1.25-4.663h4.694l-1.242,4.634h7.148
					l-1.03,3.845H94.314z"/>
				<path d="M107.103,231.383c-0.459,1.717,1.583,2.574,6.126,2.574h1.906l-1.096,4.089h-3.39c-1.697,0-3.14-0.157-4.331-0.468
					c-1.188-0.315-2.141-0.734-2.853-1.258c-0.713-0.525-1.189-1.136-1.429-1.832c-0.239-0.698-0.256-1.43-0.05-2.198l1.679-6.268
					c0.243-0.907,0.681-1.714,1.315-2.421c0.634-0.706,1.421-1.308,2.361-1.802c0.939-0.495,2.01-0.873,3.212-1.136
					c1.2-0.263,2.497-0.393,3.891-0.393h6.813c1.131,0,2.143,0.12,3.039,0.363c0.893,0.241,1.635,0.579,2.225,1.015
					c0.59,0.434,0.997,0.97,1.221,1.603c0.223,0.636,0.229,1.349,0.018,2.134l-1.606,5.997H107.103z M123.038,225.825
					c0.273-1.018-0.86-1.528-3.399-1.528h-6.799c-2.681,0-4.153,0.501-4.42,1.498l-0.509,1.895h14.627L123.038,225.825z"/>
				<path d="M135.604,238.046c-3.191,0-5.374-0.449-6.544-1.348c-1.174-0.897-1.508-2.287-1.005-4.163l1.801-6.724
					c0.99-3.694,4.24-5.541,9.753-5.541h15.717l-1.103,4.118h-15.959c-2.222,0-3.452,0.446-3.69,1.331l-1.777,6.633
					c-0.281,1.051,1.064,1.576,4.031,1.576h14.839l-1.104,4.118H135.604z"/>
				<path d="M172.095,238.046l3.286-12.266c0.054-0.201-0.004-0.389-0.17-0.558c-0.165-0.171-0.412-0.319-0.744-0.44
					c-0.333-0.121-0.734-0.217-1.211-0.289c-0.474-0.069-0.994-0.106-1.561-0.106h-6.298c-0.545,0-1.06,0.036-1.543,0.106
					c-0.484,0.072-0.919,0.173-1.308,0.304c-0.39,0.132-0.707,0.283-0.956,0.454c-0.247,0.17-0.398,0.358-0.451,0.56l-3.279,12.235
					h-4.695l3.36-12.539c0.935-3.491,4.362-5.237,10.277-5.237h5.996c5.835,0,8.287,1.735,7.356,5.207l-3.368,12.569H172.095z"/>
				<path d="M204.775,232.382c-0.243,0.91-0.659,1.712-1.251,2.409c-0.592,0.695-1.324,1.287-2.2,1.77
					c-0.878,0.486-1.882,0.854-3.007,1.106c-1.128,0.253-2.348,0.379-3.66,0.379h-6.087c-1.314,0-2.484-0.13-3.513-0.395
					c-1.033-0.261-1.876-0.637-2.534-1.12c-0.656-0.485-1.109-1.075-1.356-1.773c-0.249-0.694-0.253-1.487-0.014-2.377l1.679-6.268
					c0.239-0.887,0.676-1.696,1.316-2.421c0.637-0.728,1.423-1.342,2.358-1.849c0.932-0.504,1.981-0.892,3.142-1.164
					c1.164-0.273,2.392-0.409,3.685-0.409h6.087c5.734,0,8.084,1.927,7.052,5.783L204.775,232.382z M201.762,225.992
					c0.066-0.241,0.02-0.464-0.138-0.664c-0.159-0.204-0.398-0.369-0.715-0.501c-0.319-0.13-0.708-0.236-1.172-0.318
					c-0.463-0.08-0.967-0.122-1.512-0.122h-5.965c-0.526,0-1.054,0.05-1.584,0.152c-0.535,0.102-1.031,0.238-1.49,0.409
					c-0.459,0.172-0.845,0.367-1.158,0.59c-0.312,0.222-0.502,0.465-0.572,0.726l-1.59,5.937c-0.065,0.242,0,0.469,0.194,0.681
					c0.197,0.212,0.48,0.395,0.854,0.546c0.373,0.15,0.811,0.273,1.311,0.363c0.501,0.09,1.012,0.137,1.538,0.137h5.905
					c0.424,0,0.881-0.047,1.371-0.137c0.488-0.09,0.949-0.213,1.383-0.363c0.435-0.151,0.806-0.333,1.117-0.546
					c0.31-0.212,0.496-0.439,0.56-0.681L201.762,225.992z"/>
				<path d="M206.347,238.046l6.029-22.5h4.876l-6.029,22.5H206.347z"/>
				<path d="M239.359,232.382c-0.244,0.91-0.66,1.712-1.252,2.409c-0.591,0.695-1.325,1.287-2.2,1.77
					c-0.877,0.486-1.881,0.854-3.007,1.106c-1.126,0.253-2.347,0.379-3.659,0.379h-6.088c-1.314,0-2.483-0.13-3.513-0.395
					c-1.032-0.261-1.875-0.637-2.533-1.12c-0.658-0.485-1.11-1.075-1.355-1.773c-0.249-0.694-0.253-1.487-0.014-2.377l1.679-6.268
					c0.239-0.887,0.676-1.696,1.315-2.421c0.638-0.728,1.424-1.342,2.358-1.849c0.933-0.504,1.981-0.892,3.143-1.164
					c1.163-0.273,2.392-0.409,3.683-0.409h6.088c5.734,0,8.085,1.927,7.053,5.783L239.359,232.382z M236.346,225.992
					c0.066-0.241,0.019-0.464-0.139-0.664c-0.158-0.204-0.397-0.369-0.714-0.501c-0.319-0.13-0.709-0.236-1.172-0.318
					c-0.463-0.08-0.967-0.122-1.512-0.122h-5.965c-0.526,0-1.054,0.05-1.585,0.152c-0.534,0.102-1.03,0.238-1.489,0.409
					c-0.46,0.172-0.845,0.367-1.158,0.59c-0.313,0.222-0.502,0.465-0.572,0.726l-1.591,5.937c-0.064,0.242,0,0.469,0.195,0.681
					c0.196,0.212,0.48,0.395,0.853,0.546c0.374,0.15,0.811,0.273,1.312,0.363c0.5,0.09,1.012,0.137,1.538,0.137h5.906
					c0.424,0,0.88-0.047,1.369-0.137c0.488-0.09,0.95-0.213,1.384-0.363c0.435-0.151,0.806-0.333,1.116-0.546
					c0.31-0.212,0.496-0.439,0.56-0.681L236.346,225.992z"/>
				<path d="M264.843,236.835c-0.237,0.887-0.691,1.68-1.362,2.377c-0.671,0.695-1.512,1.288-2.519,1.772
					c-1.008,0.484-2.162,0.853-3.461,1.106c-1.3,0.251-2.705,0.378-4.22,0.378h-3.452l1.045-3.906h5.604
					c0.847,0,1.548-0.112,2.102-0.333c0.554-0.223,0.926-0.495,1.113-0.819h-9.266c-3.048,0-5.303-0.424-6.761-1.271
					c-1.459-0.848-1.944-2.18-1.458-3.998l1.655-6.177c1.018-3.796,4.656-5.693,10.915-5.693h4.663c1.494,0,2.81,0.13,3.952,0.393
					c1.141,0.263,2.075,0.642,2.799,1.136c0.726,0.495,1.224,1.096,1.503,1.802c0.274,0.707,0.292,1.503,0.054,2.391
					L264.843,236.835z M263.013,226.149c0.066-0.242-0.006-0.474-0.208-0.697c-0.202-0.223-0.5-0.41-0.893-0.56
					c-0.393-0.154-0.85-0.274-1.371-0.365c-0.52-0.091-1.064-0.138-1.628-0.138h-6.36c-1.212,0-2.146,0.118-2.803,0.35
					c-0.66,0.233-1.061,0.624-1.208,1.17l-1.66,6.198c-0.288,1.072,1.002,1.61,3.868,1.61h10.237L263.013,226.149z"/>
				<path d="M267.792,238.046l4.771-17.808h4.664l-4.772,17.808H267.792z M275.511,218.725h-3.876l6.308-5.906h4.27L275.511,218.725
					z"/>
				<path d="M297.416,220.27c1.232,0,2.306,0.13,3.227,0.393c0.919,0.263,1.656,0.636,2.214,1.121
					c0.556,0.485,0.923,1.075,1.098,1.772c0.177,0.697,0.149,1.49-0.089,2.376l-1.777,6.632c-0.98,3.656-4.124,5.482-9.435,5.482
					h-8.903c-1.132,0-2.166-0.13-3.104-0.395c-0.941-0.261-1.725-0.625-2.358-1.09c-0.634-0.462-1.079-1.024-1.337-1.679
					c-0.26-0.656-0.281-1.378-0.07-2.167l0.599-2.24c0.222-0.828,0.618-1.561,1.193-2.197c0.575-0.635,1.281-1.166,2.122-1.589
					c0.84-0.425,1.787-0.742,2.845-0.953c1.055-0.213,2.179-0.318,3.371-0.318h12.234c0.075-0.283-0.092-0.555-0.507-0.818
					c-0.415-0.263-1.116-0.395-2.104-0.395h-5.361l1.054-3.936H297.416z M285.917,229.173c-2.263,0-3.555,0.595-3.872,1.787
					l-0.374,1.393c-0.281,1.051,0.739,1.576,3.061,1.576h9.388c0.647,0,1.175-0.031,1.585-0.091
					c0.408-0.062,0.745-0.207,1.011-0.439c0.265-0.233,0.489-0.581,0.673-1.046c0.186-0.464,0.387-1.099,0.604-1.908l0.34-1.271
					H285.917z"/>
				<path d="M306.699,240.438h-4.209l3.436-8.751h4.876L306.699,240.438z"/>
				<path d="M341.284,224.388h-4.512c-2.504,0-3.826,0.261-3.965,0.779l-0.233,0.868c-0.047,0.18-0.028,0.334,0.057,0.465
					c0.088,0.128,0.274,0.228,0.557,0.3c0.286,0.067,0.682,0.118,1.189,0.148c0.508,0.03,1.157,0.045,1.946,0.045h6.066
					c4.854,0,6.83,1.681,5.931,5.04l-0.204,0.761c-0.939,3.504-3.985,5.253-9.141,5.253h-14.252l1.103-4.118h14.232
					c1.918,0,2.977-0.374,3.177-1.122l0.171-0.636c0.178-0.667-0.59-1-2.305-1h-5.907c-5.794,0-8.241-1.685-7.336-5.057l0.291-1.089
					c0.438-1.636,1.398-2.837,2.875-3.605c1.478-0.767,3.702-1.15,6.669-1.15h4.693L341.284,224.388z"/>
				<path d="M374.303,232.382c-0.243,0.91-0.66,1.712-1.251,2.409c-0.592,0.695-1.325,1.287-2.2,1.77
					c-0.878,0.486-1.882,0.854-3.007,1.106c-1.128,0.253-2.347,0.379-3.661,0.379h-6.088c-1.313,0-2.484-0.13-3.512-0.395
					c-1.033-0.261-1.876-0.637-2.533-1.12c-0.658-0.485-1.111-1.075-1.357-1.773c-0.249-0.694-0.252-1.487-0.014-2.377l1.679-6.268
					c0.239-0.887,0.676-1.696,1.316-2.421c0.638-0.728,1.423-1.342,2.358-1.849c0.932-0.504,1.981-0.892,3.143-1.164
					c1.163-0.273,2.391-0.409,3.683-0.409h6.088c5.734,0,8.084,1.927,7.051,5.783L374.303,232.382z M371.29,225.992
					c0.065-0.241,0.019-0.464-0.138-0.664c-0.158-0.204-0.397-0.369-0.715-0.501c-0.318-0.13-0.709-0.236-1.172-0.318
					c-0.462-0.08-0.966-0.122-1.511-0.122h-5.965c-0.526,0-1.054,0.05-1.586,0.152c-0.534,0.102-1.028,0.238-1.488,0.409
					c-0.46,0.172-0.847,0.367-1.159,0.59c-0.311,0.222-0.501,0.465-0.571,0.726l-1.592,5.937c-0.065,0.242,0,0.469,0.195,0.681
					c0.196,0.212,0.48,0.395,0.854,0.546c0.373,0.15,0.811,0.273,1.31,0.363c0.502,0.09,1.014,0.137,1.54,0.137h5.905
					c0.423,0,0.881-0.047,1.369-0.137c0.488-0.09,0.95-0.213,1.383-0.363c0.436-0.151,0.806-0.333,1.116-0.546
					c0.311-0.212,0.496-0.439,0.56-0.681L371.29,225.992z"/>
				<path d="M403.523,238.046l3.173-11.841c0.082-0.303,0.023-0.58-0.171-0.833c-0.195-0.251-0.49-0.469-0.885-0.651
					c-0.395-0.181-0.872-0.321-1.43-0.424c-0.56-0.101-1.161-0.151-1.808-0.151c-1.271,0-2.339,0.18-3.204,0.546
					c-0.865,0.363-1.379,0.847-1.541,1.453l-3.189,11.902h-4.755l3.197-11.932c0.082-0.303,0.037-0.586-0.135-0.847
					c-0.171-0.263-0.435-0.489-0.788-0.681c-0.353-0.192-0.787-0.339-1.305-0.44c-0.518-0.1-1.091-0.153-1.716-0.153
					c-0.648,0-1.266,0.053-1.858,0.153c-0.591,0.101-1.123,0.254-1.589,0.455c-0.468,0.203-0.86,0.439-1.176,0.712
					c-0.314,0.271-0.518,0.58-0.61,0.922l-3.165,11.812h-4.695l3.197-11.932c1.067-3.977,4.425-5.965,10.079-5.965
					c3.834,0,6.278,0.604,7.326,1.816c1.981-1.212,4.776-1.816,8.391-1.816c5.43,0,7.612,1.988,6.547,5.965l-3.197,11.932H403.523z"
					/>
				<path d="M436.445,232.382c-0.243,0.91-0.66,1.712-1.252,2.409c-0.591,0.695-1.324,1.287-2.2,1.77
					c-0.877,0.486-1.882,0.854-3.006,1.106c-1.128,0.253-2.348,0.379-3.661,0.379h-6.087c-1.313,0-2.484-0.13-3.512-0.395
					c-1.032-0.261-1.877-0.637-2.533-1.12c-0.658-0.485-1.111-1.075-1.357-1.773c-0.249-0.694-0.253-1.487-0.014-2.377l1.68-6.268
					c0.238-0.887,0.676-1.696,1.316-2.421c0.638-0.728,1.422-1.342,2.358-1.849c0.932-0.504,1.981-0.892,3.143-1.164
					c1.162-0.273,2.39-0.409,3.683-0.409h6.087c5.735,0,8.085,1.927,7.052,5.783L436.445,232.382z M433.431,225.992
					c0.066-0.241,0.02-0.464-0.138-0.664c-0.158-0.204-0.397-0.369-0.714-0.501c-0.318-0.13-0.709-0.236-1.173-0.318
					c-0.463-0.08-0.966-0.122-1.511-0.122h-5.966c-0.524,0-1.052,0.05-1.584,0.152c-0.535,0.102-1.029,0.238-1.488,0.409
					c-0.461,0.172-0.847,0.367-1.159,0.59c-0.313,0.222-0.503,0.465-0.572,0.726l-1.591,5.937c-0.065,0.242,0,0.469,0.195,0.681
					c0.196,0.212,0.48,0.395,0.854,0.546c0.373,0.15,0.81,0.273,1.31,0.363c0.501,0.09,1.014,0.137,1.539,0.137h5.907
					c0.423,0,0.879-0.047,1.368-0.137c0.488-0.09,0.951-0.213,1.384-0.363c0.436-0.151,0.805-0.333,1.116-0.546
					c0.31-0.212,0.496-0.439,0.56-0.681L433.431,225.992z"/>
				<path d="M454.271,224.388h-4.512c-2.503,0-3.825,0.261-3.963,0.779l-0.233,0.868c-0.048,0.18-0.029,0.334,0.057,0.465
					c0.087,0.128,0.274,0.228,0.557,0.3c0.285,0.067,0.681,0.118,1.188,0.148c0.508,0.03,1.158,0.045,1.946,0.045h6.066
					c4.855,0,6.83,1.681,5.931,5.04l-0.205,0.761c-0.937,3.504-3.984,5.253-9.141,5.253h-14.252l1.104-4.118h14.233
					c1.917,0,2.976-0.374,3.177-1.122l0.17-0.636c0.178-0.667-0.59-1-2.305-1h-5.905c-5.795,0-8.242-1.685-7.339-5.057l0.293-1.089
					c0.438-1.636,1.397-2.837,2.875-3.605c1.477-0.767,3.701-1.15,6.667-1.15h4.693L454.271,224.388z"/>
				<path d="M502.883,238.046l3.172-11.841c0.082-0.303,0.023-0.58-0.171-0.833c-0.194-0.251-0.489-0.469-0.884-0.651
					c-0.396-0.181-0.873-0.321-1.431-0.424c-0.559-0.101-1.161-0.151-1.808-0.151c-1.27,0-2.339,0.18-3.203,0.546
					c-0.865,0.363-1.379,0.847-1.542,1.453l-3.188,11.902h-4.755l3.196-11.932c0.082-0.303,0.037-0.586-0.133-0.847
					c-0.172-0.263-0.436-0.489-0.789-0.681c-0.354-0.192-0.788-0.339-1.306-0.44c-0.517-0.1-1.089-0.153-1.716-0.153
					c-0.646,0-1.264,0.053-1.858,0.153c-0.591,0.101-1.123,0.254-1.588,0.455c-0.468,0.203-0.861,0.439-1.177,0.712
					c-0.314,0.271-0.518,0.58-0.61,0.922l-3.164,11.812h-4.695l3.197-11.932c1.066-3.977,4.426-5.965,10.078-5.965
					c3.834,0,6.278,0.604,7.327,1.816c1.98-1.212,4.776-1.816,8.39-1.816c5.43,0,7.613,1.988,6.547,5.965l-3.196,11.932H502.883z"/>
				<path d="M532.418,220.27c1.232,0,2.306,0.13,3.226,0.393c0.919,0.263,1.657,0.636,2.215,1.121
					c0.555,0.485,0.923,1.075,1.098,1.772c0.177,0.697,0.148,1.49-0.089,2.376l-1.778,6.632c-0.979,3.656-4.124,5.482-9.435,5.482
					h-8.902c-1.132,0-2.167-0.13-3.104-0.395c-0.941-0.261-1.726-0.625-2.359-1.09c-0.635-0.462-1.078-1.024-1.337-1.679
					c-0.259-0.656-0.281-1.378-0.069-2.167l0.598-2.24c0.221-0.828,0.618-1.561,1.194-2.197c0.575-0.635,1.279-1.166,2.122-1.589
					c0.839-0.425,1.787-0.742,2.844-0.953c1.055-0.213,2.18-0.318,3.372-0.318h12.233c0.075-0.283-0.091-0.555-0.506-0.818
					c-0.416-0.263-1.117-0.395-2.105-0.395h-5.361l1.055-3.936H532.418z M520.919,229.173c-2.263,0-3.555,0.595-3.873,1.787
					l-0.373,1.393c-0.281,1.051,0.739,1.576,3.061,1.576h9.388c0.647,0,1.175-0.031,1.585-0.091
					c0.407-0.062,0.745-0.207,1.011-0.439c0.264-0.233,0.489-0.581,0.672-1.046c0.187-0.464,0.388-1.099,0.605-1.908l0.34-1.271
					H520.919z M531.317,218.725h-3.876l6.306-5.906h4.271L531.317,218.725z"/>
				<path d="M554.541,224.388h-4.512c-2.504,0-3.825,0.261-3.964,0.779l-0.233,0.868c-0.048,0.18-0.028,0.334,0.057,0.465
					c0.088,0.128,0.275,0.228,0.558,0.3c0.285,0.067,0.68,0.118,1.187,0.148c0.508,0.03,1.158,0.045,1.947,0.045h6.066
					c4.854,0,6.83,1.681,5.93,5.04l-0.204,0.761c-0.939,3.504-3.984,5.253-9.141,5.253h-14.252l1.104-4.118h14.232
					c1.918,0,2.977-0.374,3.177-1.122l0.17-0.636c0.178-0.667-0.59-1-2.305-1h-5.905c-5.795,0-8.242-1.685-7.337-5.057l0.293-1.089
					c0.437-1.636,1.397-2.837,2.874-3.605c1.478-0.767,3.701-1.15,6.669-1.15h4.693L554.541,224.388z"/>
				<path d="M569.052,235.563c-0.189,0.707-0.629,1.266-1.314,1.681c-0.686,0.413-1.433,0.62-2.242,0.62
					c-0.847,0-1.481-0.213-1.902-0.637c-0.422-0.423-0.536-0.998-0.342-1.726c0.189-0.705,0.621-1.281,1.297-1.726
					c0.673-0.443,1.415-0.666,2.223-0.666c0.383,0,0.739,0.062,1.071,0.182c0.331,0.12,0.598,0.292,0.802,0.516
					c0.203,0.221,0.344,0.482,0.424,0.786C569.15,234.897,569.144,235.218,569.052,235.563z M564.487,232.594l4.568-17.048h4.876
					l-4.569,17.048H564.487z"/>
				<path d="M577.743,235.563c-0.19,0.707-0.629,1.266-1.313,1.681c-0.687,0.413-1.434,0.62-2.242,0.62
					c-0.848,0-1.482-0.213-1.904-0.637c-0.421-0.423-0.534-0.998-0.341-1.726c0.189-0.705,0.621-1.281,1.297-1.726
					c0.674-0.443,1.415-0.666,2.222-0.666c0.383,0,0.74,0.062,1.071,0.182c0.331,0.12,0.599,0.292,0.802,0.516
					c0.203,0.221,0.344,0.482,0.424,0.786C577.841,234.897,577.835,235.218,577.743,235.563z M573.177,232.594l4.568-17.048h4.876
					l-4.569,17.048H573.177z"/>
				<path d="M586.455,235.563c-0.19,0.707-0.629,1.266-1.314,1.681c-0.686,0.413-1.434,0.62-2.242,0.62
					c-0.847,0-1.481-0.213-1.902-0.637c-0.422-0.423-0.536-0.998-0.341-1.726c0.189-0.705,0.619-1.281,1.296-1.726
					c0.674-0.443,1.414-0.666,2.221-0.666c0.384,0,0.74,0.062,1.073,0.182c0.33,0.12,0.596,0.292,0.801,0.516
					c0.202,0.221,0.344,0.482,0.423,0.786C586.552,234.897,586.546,235.218,586.455,235.563z M581.89,232.594l4.569-17.048h4.876
					l-4.57,17.048H581.89z"/>
			</g>
			<g>
				<polygon fill="#FFFFFF" points="366.92,129.956 414.807,129.956 409.308,142.558 393.226,142.558 376.472,180.904 
					360.745,180.904 377.497,142.558 361.415,142.558 				"/>
				<polygon fill="#FFFFFF" points="421.826,129.956 463.955,129.956 459.202,140.85 432.882,140.85 429.333,148.958 
					453.746,148.958 449.205,159.347 424.79,159.347 420.411,169.383 447.526,169.383 442.488,180.904 399.573,180.904 				"/>
				<path fill="#FFFFFF" d="M493.983,160.054l11.987,4.165c-2.615,3.865-5.491,7.103-8.614,9.693
					c-3.129,2.582-6.459,4.549-9.989,5.867c-3.536,1.32-7.587,1.977-12.146,1.977c-5.548,0-9.721-0.801-12.536-2.406
					c-2.815-1.614-4.604-4.431-5.385-8.492c-0.782-4.055,0.212-9.231,2.97-15.549c3.675-8.42,8.749-14.9,15.206-19.424
					c6.461-4.519,13.797-6.786,21.998-6.786c6.426,0,10.912,1.297,13.441,3.887c2.539,2.605,3.536,6.596,2.978,11.966l-15.216,3.074
					c0.172-1.542,0.159-2.664-0.057-3.379c-0.364-1.205-1.044-2.12-2.034-2.764c-0.983-0.639-2.284-0.958-3.865-0.958
					c-3.568,0-6.931,1.426-10.089,4.29c-2.369,2.128-4.543,5.456-6.531,10.009c-2.457,5.634-3.281,9.503-2.496,11.599
					c0.813,2.077,2.762,3.127,5.873,3.127c3.013,0,5.662-0.848,7.928-2.539C489.694,165.728,491.886,163.273,493.983,160.054z"/>
				<polygon fill="#FFFFFF" points="528.542,129.956 544.263,129.956 536.505,147.756 553.715,147.756 561.481,129.956 
					577.276,129.956 555.016,180.904 539.234,180.904 548.242,160.268 531.028,160.268 522.014,180.904 506.281,180.904 				"/>
			</g>
		</g>
	</g>
</g>
</svg>
